# xmcd
# 
# Track frame offsets:
#     150
#     19472
#     33405
#     42795
#     57057
#     66360
#     80532
#     99332
#     113310
#     121195
#     124227
#     126855
#     128642
#     136052
#     158432
#     183105
#     193957
#     196677
#     203892
#     215690
#     235880
#     250000
#     262752
#     275062
#     292057
# 
# Disc length: 4009
# 
# Revision: 1
# Processed by: cddbd v1.5.2PL0 Copyright (c) Steve Scherf et al.
# Submitted via: fre:ac v1.0.17
# 
DISCID=610fa719
DTITLE=Various Artist - Roots Of Rythym And Blues: A Tribute To The Robert Johnson Era
DYEAR=1992
DGENRE=Blues
TTITLE0=Johnny Shines And Ensemble - Sweet Home Chicago
TTITLE1=Lonnie Pitchford - Come On In My Kitchen
TTITLE2=Moving Star Hall Singers - You've Got To Move
TTITLE3=Henry Townsend - All My Money's Gone
TTITLE4=Robert Junior Lockwood with Gene Schwartz - How Long, How Long Blues
TTITLE5=David 'Honeyboy' Edwards - That's Alright
TTITLE6=Jessie Mae Hemphill - Train, Train
TTITLE7=Elder Roma Wilson - This Train
TTITLE8=Phil Wiggins - Silver Comet Train
TTITLE9=Railroad Maintenance Crew - Captain Can't Read
TTITLE10=Johnny Shines - Satisfied
TTITLE11=Johnny Shines - Watermelons
TTITLE12=David Savage - I'm Going Home
TTITLE13=John Cephas And Phil Wiggins - The Brownsville Blues
TTITLE14=Johnny Shines And Ensemble - Loved And Lost
TTITLE15=Lonnie Pitchford - Walking Blues
TTITLE16=Johnny Shines - Tell Me Daddy, How You Want Your Rolling Done
TTITLE17=David Savage - Bertha
TTITLE18=Moving Star Hall Singers - If You Kiss Me
TTITLE19=Johnny Shines And Ensemble - The Moon Is Rising
TTITLE20=Robert Junior Lockwood - Kind Hearted Woman
TTITLE21=Toshi Reagon - I Hate To See The Sun Go Down
TTITLE22=Lonnie Pitchford - Terraplane Blues
TTITLE23=Johnny Shines And Ensemble - Milkcow Blues
TTITLE24=Johnny Shines And Ensemble - Fat Mama
EXTD=Columbia Records 1992
EXTT0=
EXTT1=
EXTT2=
EXTT3=
EXTT4=
EXTT5=
EXTT6=
EXTT7=
EXTT8=
EXTT9=
EXTT10=
EXTT11=
EXTT12=
EXTT13=
EXTT14=
EXTT15=
EXTT16=
EXTT17=
EXTT18=
EXTT19=
EXTT20=
EXTT21=
EXTT22=
EXTT23=
EXTT24=
PLAYORDER=
